<?xml version="1.0" encoding="UTF-8" standalone="no"?>
<!-- Created with Inkscape (http://www.inkscape.org/) -->

<svg
   version="1.1"
   id="svg2"
   width="266.66666"
   height="266.66666"
   viewBox="0 0 266.66666 266.66666"
   sodipodi:docname="kansas-city-southern-lines-seeklogo.ai"
   xmlns:inkscape="http://www.inkscape.org/namespaces/inkscape"
   xmlns:sodipodi="http://sodipodi.sourceforge.net/DTD/sodipodi-0.dtd"
   xmlns="http://www.w3.org/2000/svg"
   xmlns:svg="http://www.w3.org/2000/svg">
  <defs
     id="defs6" />
  <sodipodi:namedview
     id="namedview4"
     pagecolor="#ffffff"
     bordercolor="#000000"
     borderopacity="0.25"
     inkscape:showpageshadow="2"
     inkscape:pageopacity="0.0"
     inkscape:pagecheckerboard="0"
     inkscape:deskcolor="#d1d1d1" />
  <g
     id="g8"
     inkscape:groupmode="layer"
     inkscape:label="kansas-city-southern-lines-seeklogo"
     transform="matrix(1.3333333,0,0,-1.3333333,0,266.66667)">
    <g
       id="g10"
       transform="scale(1,-1)">
      <path
         d="M 200,0 C 200,0 0,0 0,0 c 0,0 0,-200 0,-200 0,0 200,0 200,0 0,0 0,200 0,200 z"
         style="fill:#ffffff;fill-opacity:1;fill-rule:nonzero;stroke:none"
         id="path12" />
      <path
         d="m 196.62695,-155.13086 c 0,0 0.87305,0.72852 0.87305,0.72852 0,0 0,107.11914 0,107.11914 0,0 -43.98828,42.2832 -43.98828,42.2832 0,0 -107.56885,0 -107.56885,0 0,0 -43.44287,-41.96387 -43.44287,-41.96387 0,0 0,-105.86426 0,-105.86426 0,0 43.66162,-42.17187 43.66162,-42.17187 0,0 108.00342,0 108.00342,0 0,0 42.46191,39.86914 42.46191,39.86914 0,0 0,0 0,0 0,0 0,0 0,0 z"
         style="fill:#dd2f38;fill-opacity:1;fill-rule:nonzero;stroke:none"
         id="path14" />
      <path
         d="m 191.94629,-151.56689 c 0,0 0,101.98095 0,101.98095 0,0 -40.72168,39.33985 -40.72168,39.33985 0,0 -102.5625,0 -102.5625,0 0,0 -40.28369,-38.92188 -40.28369,-38.92188 0,0 0,-102.19141 0,-102.19141 0,0 40.28369,-38.92773 40.28369,-38.92773 0,0 102.5625,0 102.5625,0 0,0 40.72168,38.72022 40.72168,38.72022 0,0 0,0 0,0 0,0 0,0 0,0 z"
         style="fill:#ffffff;fill-opacity:1;fill-rule:nonzero;stroke:none"
         id="path16" />
      <path
         d="m 184.76172,-148.52002 c 0,0 0,95.88818 0,95.88818 0,0 -36.47754,35.15039 -36.47754,35.15039 0,0 -96.46289,0 -96.46289,0 0,0 -35.05859,-34.20605 -35.05859,-34.20605 0,0 -0.54297,-0.52637 -0.54297,-0.52637 0,0 0,-97.04541 0,-97.04541 0,0 35.2749,-33.99023 35.2749,-33.99023 0,0 96.57568,0 96.57568,0 0,0 36.69141,34.72949 36.69141,34.72949 0,0 0,0 0,0 0,0 0,0 0,0 z"
         style="fill:#dd2f38;fill-opacity:1;fill-rule:nonzero;stroke:none"
         id="path18" />
      <path
         d="m 57.7002,-151.32471 c 0,0 0,-19.12695 0,-19.12695 0,0 -12.73829,0 -12.73829,0 0,0 0,44.79883 0,44.79883 0,0 12.73829,0 12.73829,0 0,0 -0.0542,-18.06397 -0.0542,-18.06397 0,0 7.34961,18.06397 7.34961,18.06397 0,0 12.70263,0.04 12.70263,0.04 -3.48388,-7.55274 -6.60449,-15.46289 -9.7622,-23.12159 3.70117,-7.34912 7.29248,-14.58496 10.99511,-21.93017 0,0 -11.75732,0 -11.75732,0 0,0 -9.47363,19.33984 -9.47363,19.33984 0,0 0,0 0,0 0,0 0,0 0,0 z"
         style="fill:#ffffff;fill-opacity:1;fill-rule:nonzero;stroke:none"
         id="path20" />
      <path
         d="m 140.21094,-148.52002 c 2.19433,2.32275 7.53027,0.60498 7.31347,4.29688 -1.50878,3.39501 -5.55175,0.94238 -7.83886,0.63085 0,0 -0.43653,4.50977 -0.43653,4.50977 3.375,1.04785 7.73243,1.36133 10.99512,-0.20752 2.61524,-1.89014 3.15918,-4.9331 2.50684,-7.87158 -1.30762,-4.19776 -6.42676,-2.83789 -9.36426,-4.71875 -0.81641,-1.54346 0.0918,-2.67432 1.17871,-2.93848 2.07031,-0.81933 4.91895,0.20899 6.87793,0.63037 0,0 0.54492,-4.19922 0.54492,-4.19922 -2.0664,-0.73193 -4.57519,-0.73193 -7.07715,-0.73193 0,0 -7.06054,0.45459 -6.28125,7.63184 0,0 0.29102,1.94482 1.58106,2.96777 0,0 0,0 0,0 0,0 0,0 0,0 z"
         style="fill:#ffffff;fill-opacity:1;fill-rule:nonzero;stroke:none"
         id="path22" />
      <path
         d="m 108.38672,-148.52002 c 2.19726,2.32275 7.53223,0.60498 7.31348,4.29688 -1.50684,3.39501 -5.55176,0.94238 -7.83887,0.63085 0,0 -0.43457,4.50977 -0.43457,4.50977 3.37597,1.04785 7.72754,1.36133 10.99512,-0.20752 2.61621,-1.89014 3.15722,-4.9331 2.50488,-7.87158 -1.30762,-4.19776 -6.42481,-2.83789 -9.36426,-4.71875 -0.81641,-1.54346 0.0918,-2.67432 1.18164,-2.93848 2.06543,-0.81933 4.91504,0.20899 6.875,0.63037 0,0 0.54492,-4.19922 0.54492,-4.19922 -2.07031,-0.73193 -4.57226,-0.73193 -7.07812,-0.73193 0,0 -7.05762,0.45459 -6.27735,7.63184 0,0 0.28907,1.94482 1.57813,2.96777 0,0 0,0 0,0 0,0 0,0 0,0 z"
         style="fill:#ffffff;fill-opacity:1;fill-rule:nonzero;stroke:none"
         id="path24" />
      <path
         d="m 100.8374,-148.08398 c 0,0 -0.0205,-10.82813 -0.0205,-10.82813 0,0 4.57276,0 4.57276,0 0,0 0,21.19092 0,21.19092 0,0 -5.77051,0 -5.77051,0 -0.98144,-3.24658 -3.04883,-7.83106 -4.03027,-10.97852 0,0 0,10.97852 0,10.97852 0,0 -4.57324,0 -4.57324,0 0,0 0,-20.97852 0,-20.97852 0,0 5.66308,0 5.66308,0 0,0 4.15869,10.61573 4.15869,10.61573 0,0 0,0 0,0 0,0 0,0 0,0 z"
         style="fill:#ffffff;fill-opacity:1;fill-rule:nonzero;stroke:none"
         id="path26" />
      <path
         d="m 162.89453,-74.58008 c 0,0 -0.0186,-10.42773 -0.0186,-10.42773 0,0 4.57129,0 4.57129,0 0,0 0,20.79883 0,20.79883 0,0 -5.77051,0 -5.77051,0 -0.97852,-3.25 -3.04688,-7.8379 -4.02735,-10.98243 0,0 0,10.98243 0,10.98243 0,0 -4.57031,0 -4.57031,0 0,0 0,-20.58985 0,-20.58985 0,0 5.66016,0 5.66016,0 0,0 4.15527,10.21875 4.15527,10.21875 0,0 0,0 0,0 0,0 0,0 0,0 z"
         style="fill:#ffffff;fill-opacity:1;fill-rule:nonzero;stroke:none"
         id="path28" />
      <path
         d="m 137.98438,-137.85107 c 0,0 -4.9004,0 -4.9004,0 -0.32714,-1.36963 -0.32714,-2.7295 -0.87109,-3.98877 0,0 -5.26562,0 -5.26562,0 -0.5459,1.25927 -0.5459,2.61914 -0.87012,3.98877 0,0 -4.90332,0 -4.90332,0 1.08984,-6.81934 2.70703,-13.73047 4.13867,-20.77344 0,0 8.27539,0 8.27539,0 1.52539,6.61035 3.1582,13.7417 4.46582,20.77344 0,0 -0.0693,0 -0.0693,0 0,0 0,0 0,0 0,0 0,0 0,0 z"
         style="fill:#ffffff;fill-opacity:1;fill-rule:nonzero;stroke:none"
         id="path30" />
      <path
         d="m 90.19189,-137.85107 c 0,0 -4.90039,0 -4.90039,0 -0.32714,-1.36963 -0.32714,-2.7295 -0.87011,-3.98877 0,0 -5.26514,0 -5.26514,0 -0.54687,1.25927 -0.54687,2.61914 -0.87061,3.98877 0,0 -4.9038,0 -4.9038,0 1.08984,-6.81934 2.6831,-13.82032 4.13574,-20.77344 0,0 8.27832,0 8.27832,0 1.52441,6.61035 3.15723,13.7417 4.46533,20.77344 0,0 -0.06934,0 -0.06934,0 0,0 0,0 0,0 0,0 0,0 0,0 z"
         style="fill:#ffffff;fill-opacity:1;fill-rule:nonzero;stroke:none"
         id="path32" />
      <path
         d="m 83.61279,-146.21924 c 0,0 -3.37597,0 -3.37597,0 0,0 1.54541,-5.62646 1.54541,-5.62646 0,0 1.83056,5.62646 1.83056,5.62646 0,0 0,0 0,0 0,0 0,0 0,0 z"
         style="fill:#dd2f38;fill-opacity:1;fill-rule:nonzero;stroke:none"
         id="path34" />
      <path
         d="m 131.11133,-146.21924 c 0,0 -3.37598,0 -3.37598,0 0,0 1.54199,-5.62646 1.54199,-5.62646 0,0 1.83399,5.62646 1.83399,5.62646 0,0 0,0 0,0 0,0 0,0 0,0 z"
         style="fill:#dd2f38;fill-opacity:1;fill-rule:nonzero;stroke:none"
         id="path36" />
      <path
         d="m 68.69873,-100.37305 c -4.13818,1.36914 -8.92871,2.93848 -13.50146,1.47852 -3.04883,-1.05176 -5.66456,-3.77979 -6.53516,-6.71826 -0.43018,-3.67334 0.43799,-7.6626 3.81152,-10.07471 4.78907,-3.0376 12.30274,-2.51025 16.98438,0.42676 0,0 0,-8.92237 0,-8.92237 0,0 -5.11621,0 -5.11621,0 0,0 -2.79737,-5.03173 -2.79737,-5.03173 0,0 -2.10351,0 -2.10351,0 0,0 0,5.17089 0,5.17089 0,0 0,0.0684 0,0.0684 0,0 -15.23877,0 -15.23877,0 -3.37793,1.67774 -5.01319,5.14063 -6.86279,7.97608 -2.50196,6.71338 -1.74073,15.62646 3.15771,21.08545 6.42725,5.66601 14.9165,8.81347 24.06348,6.81933 0,0 3.32666,-0.60644 4.86865,-1.56933 0,0 0,-11.27539 0,-11.27539 0,0 -0.73047,0.5664 -0.73047,0.5664 0,0 0,0 0,0 0,0 0,0 0,0 z"
         style="fill:#ffffff;fill-opacity:1;fill-rule:nonzero;stroke:none"
         id="path38" />
      <path
         d="m 116.27734,-87.88281 c 0,0 5.87989,-10.17774 5.87989,-10.17774 7.18457,-10.80761 14.48047,-24.54541 27.87304,-29.16943 2.54493,-0.64063 5.44043,-0.52734 7.07618,1.78613 1.41308,1.46826 1.43945,3.95947 1.04492,5.70801 -2.17578,9.4375 -8.22949,15.80469 -14.5459,23.56201 4.46484,-2.51172 9.03808,-4.61572 13.06641,-8.18457 5.00488,-5.55664 9.47363,-13.42285 5.33398,-20.56006 -2.61621,-3.354 -6.64356,-4.72363 -11.21387,-4.29638 -13.93847,2.71826 -24.1709,14.89648 -32.12011,26.01269 -3.15918,5.25195 -6.96778,10.17481 -9.79883,15.5293 0,0 7.1123,0 7.1123,0 0,0 0.29199,-0.20996 0.29199,-0.20996 0,0 0,0 0,0 0,0 0,0 0,0 z"
         style="fill:#ffffff;fill-opacity:1;fill-rule:nonzero;stroke:none"
         id="path40" />
      <path
         d="m 71.8916,-121.59277 c 0,0 6.09668,0 6.09668,0 0,0 0,20.98242 0,20.98242 0,0 -6.09668,0 -6.09668,0 0,0 0,-20.98242 0,-20.98242 0,0 0,0 0,0 0,0 0,0 0,0 z"
         style="fill:#ffffff;fill-opacity:1;fill-rule:nonzero;stroke:none"
         id="path42" />
      <path
         d="m 102.92969,-115.39063 c 0,0 2.92383,-5.95898 2.92383,-5.95898 0,0 5.66211,0 5.66211,0 0,0 -5.86133,9.63232 -5.86133,9.63232 0,0 -0.0195,10.92774 -0.0195,10.92774 0,0 -0.39649,0 -0.39649,0 0,0 -5.00928,0 -5.00928,0 0,0 -0.0181,-10.92774 -0.0181,-10.92774 0,0 -5.86035,-9.63232 -5.86035,-9.63232 0,0 5.65966,0 5.65966,0 0,0 2.91944,5.95898 2.91944,5.95898 0,0 0,0 0,0 0,0 0,0 0,0 z"
         style="fill:#ffffff;fill-opacity:1;fill-rule:nonzero;stroke:none"
         id="path44" />
      <path
         d="m 96.22314,-79.74805 c 0,0 0,-4.71875 0,-4.71875 0,0 13.14795,0 13.14795,0 0,0 0,4.71875 0,4.71875 0,0 -3.59765,0 -3.59765,0 0,0 -0.0176,15.84571 -0.0176,15.84571 0,0 -5.85889,0 -5.85889,0 0,0 0,-15.82618 0,-15.82618 0,0 -3.67383,-0.01953 -3.67383,-0.01953 0,0 0,0 0,0 0,0 0,0 0,0 z"
         style="fill:#ffffff;fill-opacity:1;fill-rule:nonzero;stroke:none"
         id="path46" />
      <path
         d="m 79.72217,-116.71973 c 0,0 0,-4.71484 0,-4.71484 0,0 13.14795,0 13.14795,0 0,0 0,4.71484 0,4.71484 0,0 -3.59522,0 -3.59522,0 0,0 -0.01806,15.84034 -0.01806,15.84034 0,0 -5.8628,0 -5.8628,0 0,0 0,-15.82032 0,-15.82032 0,0 -3.67187,-0.02 -3.67187,-0.02 0,0 0,0 0,0 0,0 0,0 0,0 z"
         style="fill:#ffffff;fill-opacity:1;fill-rule:nonzero;stroke:none"
         id="path48" />
      <path
         d="m 45.61572,-89.03711 c 4.89844,2.625 10.45166,3.57129 16.4419,3.57129 0,0 0.21631,3.98144 0.21631,3.98144 -3.48438,-1.15136 -7.42139,-2.6914 -11.88428,-2.16503 -1.72754,0.08496 -4.33594,0.4873 -5.42774,2.58691 -0.32714,0.83789 -0.32714,1.46484 0.21875,2.20312 3.84766,3.25 9.79834,1.36426 13.71729,4.19239 5.01123,3.04297 6.64111,9.2373 5.44385,14.90039 -0.87354,5.77441 -6.75,9.5459 -11.86817,11.33301 -7.29297,1.26074 -14.26025,-0.417 -20.57812,-2.3086 0.54492,-3.67676 1.09228,-7.86426 2.07178,-11.64648 5.22167,2.20215 11.64843,4.72461 17.52734,2.09375 0.76465,-0.94141 1.74072,-1.98926 1.08935,-3.25 -4.03027,-3.77539 -10.77929,-1.88477 -15.02539,-5.2461 -4.90039,-2.9375 -5.8789,-8.8125 -4.90039,-13.63671 0.87061,-3.78125 4.31299,-7.39454 8.01368,-9.28125 1.05566,0.62207 3.09277,1.93652 4.94384,2.67187 0,0 0,0 0,0 0,0 0,0 0,0 z"
         style="fill:#ffffff;fill-opacity:1;fill-rule:nonzero;stroke:none"
         id="path50" />
      <path
         d="m 119.21484,-72.03613 c 0,0 0,8.07129 0,8.07129 0,0 5.22754,0 5.22754,0 0,0 0,-20.55274 0,-20.55274 0,0 -5.22754,0 -5.22754,0 0,0 -0.0644,0 -0.0644,0 0,0 0,7.54883 0,7.54883 0,0 -3.08984,0 -3.08984,0 0,0 0,-7.55273 0,-7.55273 0,0 -5.11914,0 -5.11914,0 0,0 0,20.55664 0,20.55664 0,0 4.90039,0 4.90039,0 0,0 0,-8.14649 0,-8.14649 0,0 3.37304,0.0752 3.37304,0.0752 0,0 0,0 0,0 0,0 0,0 0,0 z"
         style="fill:#ffffff;fill-opacity:1;fill-rule:nonzero;stroke:none"
         id="path52" />
      <path
         d="m 142.74805,-64.0332 c 0,0 -5.29492,0 -5.29492,0 0,0 0,-20.4336 0,-20.4336 0,0 8.4746,-0.14355 9.56347,0.20215 0,0 3.08594,0.87402 3.72168,3.33887 1.17676,3.51953 -0.27637,6.23047 -1.96191,7.76758 0.98047,3.03906 1.96191,5.87695 2.94043,8.91504 0,0 -4.90039,0 -4.90039,0 0,0 -1.95996,-6.82129 -1.95996,-6.82129 0,0 -2.06739,0 -2.06739,0 0,0 0,7.03125 0,7.03125 0,0 -0.041,0 -0.041,0 0,0 0,0 0,0 0,0 0,0 0,0 z"
         style="fill:#ffffff;fill-opacity:1;fill-rule:nonzero;stroke:none"
         id="path54" />
      <path
         d="m 131.57422,-72.77539 c 0,0 4.02832,0 4.02832,0 0,0 0,-3.77539 0,-3.77539 0,0 -4.24609,0 -4.24609,0 0,0 0,-4.21289 0,-4.21289 0,0 0.21777,0.01367 0.21777,0.01367 0,0 3.91992,0 3.91992,0 0,0 0,-3.77148 0,-3.77148 0,0 -9.03809,0 -9.03809,0 0,0 0,20.55664 0,20.55664 0,0 9.36524,0 9.36524,0 0,0 0,-4.30079 0,-4.30079 0,0 -4.50195,0 -4.50195,0 0,0 0,-4.54394 0,-4.54394 0,0 0.25488,0.03418 0.25488,0.03418 0,0 0,0 0,0 0,0 0,0 0,0 z"
         style="fill:#ffffff;fill-opacity:1;fill-rule:nonzero;stroke:none"
         id="path56" />
      <path
         d="m 100.59766,-60.91797 c -2.17627,4.19824 -5.11621,8.07813 -7.94873,11.95801 -3.37403,4.93457 -8.9253,9.9668 -13.60694,13.95605 5.98682,2.09961 12.95459,1.99414 19.4878,3.03711 -4.35694,2.41114 -9.36231,3.78028 -14.69874,3.88477 -4.24609,-0.31152 -9.583,-0.52051 -13.71875,-1.99512 -6.31396,3.25586 -13.96142,5.61328 -21.0122,1.6836 -1.08936,-1.26172 -1.08936,-2.52149 -0.76221,-4.19825 0.54541,-1.88672 2.36572,-2.61914 3.70264,-3.35547 6.96875,-2.9375 15.7876,-1.16113 22.97412,0.20801 8.05762,-7.23926 12.51758,-16.47461 17.74463,-25.17871 0,0 7.83838,0 7.83838,0 0,0 0,0 0,0 0,0 0,0 0,0 z"
         style="fill:#ffffff;fill-opacity:1;fill-rule:nonzero;stroke:none"
         id="path58" />
      <path
         d="m 148.19434,-35.39063 c -2.35938,-0.21875 -3.3125,-1.65917 -3.3125,-1.65917 -0.94922,-1.26856 1.04589,-1.70606 2.31543,-1.61719 1.26953,0.08984 2.90527,-0.57031 2.90527,-0.57031 3.99121,-2.31836 3.94434,-6.95313 3.94434,-6.95313 0,-0.30176 -0.27051,-0.12891 -0.27051,-0.12891 -0.27246,0 -1.78809,1.14063 -1.78809,1.14063 -5.98633,3.88183 -12.27637,9.91601 -19.05371,9.54394 -1.41699,-0.21484 -2.61328,-1.36523 -2.93848,-2.83398 0,0 -0.1748,-0.5957 -0.1748,-0.5957 -2.83203,1.4707 -5.81445,3.74316 -9.19043,3.11718 -1.37695,-0.66503 -1.41602,-2.20898 -0.76172,-3.46386 0,0 6.14356,-9.36035 6.14356,-9.36035 0,0 0.13574,-0.34668 0.13574,-0.34668 0,0 0,-0.17969 0,-0.17969 0.0879,-0.60449 -1,0 -1,0 -0.54199,0.22558 -1.49414,0.92383 -1.49414,0.92383 -1.72852,0.91894 -11.84278,12.63476 -11.84278,12.63476 0,0 -4.53418,0 -4.53418,0 0,0 7.84571,-11.10742 7.84571,-11.10742 0,0 0.18359,-0.47461 0.18359,-0.47461 0.043,-0.74512 -0.55371,-0.37793 -0.55371,-0.37793 -4.90137,3.98535 -9.04004,7.86621 -14.26367,11.75195 -1.60645,0.68457 -3.64649,0.86426 -4.79199,-0.208 -1.48584,-2.51172 -0.33448,-3.85157 0.64306,-5.53321 0,0 1.59229,-2.09375 1.59229,-2.09375 0,0 6.57715,-8.08496 6.57715,-8.08496 0,0 3.6289,0 3.6289,0 0,0 0.54492,0 0.54492,0 -0.13671,0.08496 -3.29394,3.95899 -3.29394,3.95899 -2.72168,3.67285 -5.52588,6.39257 -7.04981,10.37304 0,0 -0.22754,0.87891 0.90528,0.48536 0,0 0.26269,-0.0586 0.26269,-0.0586 0,0 18.18457,-13.94531 18.18457,-13.94531 0.7627,-0.42676 1.74121,-0.84277 2.50489,-0.42676 0,0 1.23046,0.70508 0.0527,3.45508 0,0 -0.17969,0.57031 0.40918,0.26269 0,0 0.19141,-0.1455 0.19141,-0.1455 2.71777,-2.10352 5.22656,-4.40625 9.1455,-3.7793 1.08985,0.31641 1.20118,1.57617 0.87012,2.31055 -1.95898,4.08984 -4.13769,6.43261 -6.53516,10.3125 0,0 -0.35937,0.70507 0.63672,0.35351 1.00098,-0.35351 4.53614,-1.74804 5.08301,-2.22851 0,0 0.31641,-1.18067 0.58887,-1.61719 0,0 0.13672,-0.30859 0.13672,-0.30859 1.85937,-4.89747 7.49023,-8.40137 12.61035,-9.55762 1.52441,-0.20899 3.15625,0.20898 3.70312,1.68066 0.98047,2.09571 -0.52832,4.03125 -1.74414,4.92871 -3.18457,1.80664 -6.45019,3.25684 -10.56054,3.77637 -1.08887,1.15625 -1.65235,3.54297 -0.74512,4.24414 3.31543,1.79102 8.25684,-2.77344 12.28418,-5.18555 0,0 7.36035,-5.53027 7.72266,-6.00683 0.36328,-0.48145 2.45117,-2.97168 4.99414,-2.97168 0,0 0.53906,-0.08985 0.85644,-0.08985 0.31934,0 0.14942,0.25782 0.14942,0.25782 -2.50489,1.15234 -1.95997,3.56445 -2.39747,5.66211 -0.75976,2.72558 -2.28711,5.24609 -4.24609,7.55957 0,0 -0.30859,0.208 -0.30859,0.208 0,0 0.54492,0 1.09179,0 0.54297,0 8.8418,-0.48046 8.8418,-0.48046 0,0 -3.08496,3.36425 -3.08496,3.36425 0,0 -10.43164,0.26465 -10.43164,0.26465 0,0 -1.0918,-0.05176 -1.31738,-0.17969 0,0 0,0 0,0 0,0 0,0 0,0 z"
         style="fill:#ffffff;fill-opacity:1;fill-rule:nonzero;stroke:none"
         id="path60" />
      <path
         d="m 135.90332,-43.91699 c 1.2207,-3.18653 3.03906,-4.71582 6.12305,-6.47168 0,0 1.85937,-1.00293 3.26562,0.22265 0,0 0.9961,1.51368 -0.67969,2.79981 -2.40527,1.83203 -8.70898,3.44922 -8.70898,3.44922 0,0 0,0 0,0 0,0 0,0 0,0 z"
         style="fill:#dd2f38;fill-opacity:1;fill-rule:nonzero;stroke:none"
         id="path62" />
      <path
         d="m 64.44482,-73.94336 c 0,-6.01758 3.48584,-10.89551 7.7837,-10.89551 4.30029,0 7.78466,4.87793 7.78466,10.89551 0,6.0166 -3.48437,10.88965 -7.78466,10.88965 -4.29786,0 -7.7837,-4.87305 -7.7837,-10.88965 0,0 0,0 0,0 0,0 0,0 0,0 z"
         style="fill:#ffffff;fill-opacity:1;fill-rule:nonzero;stroke:none"
         id="path64" />
      <path
         d="m 89.98096,-69.11816 c 0,0.96289 -0.74707,1.73828 -1.66602,1.73828 -0.91943,0 -1.66064,-0.77539 -1.66064,-1.73828 0,0 0.0874,-0.11914 0.0874,-0.11914 0,0 0,-15.10645 0,-15.10645 0,0 -5.33594,0 -5.33594,0 0,0 0,14.46191 0,14.46191 0,0 -0.07666,0 -0.07666,0 0,3.71192 3.02735,6.73145 6.76172,6.73145 3.73096,0 6.76172,-3.01953 6.76172,-6.73145 0,0 0.05469,-0.208 0.05469,-0.208 0,0 0,-14.25391 0,-14.25391 0,0 -4.89795,0 -4.89795,0 0,0 -0.11084,15.31641 -0.11084,15.31641 0,0 0.08252,-0.09082 0.08252,-0.09082 0,0 0,0 0,0 0,0 0,0 0,0 z"
         style="fill:#ffffff;fill-opacity:1;fill-rule:nonzero;stroke:none"
         id="path66" />
      <path
         d="m 142.57031,-74.87402 c 0,0 0,-6.03614 0,-6.03614 0,0 3.17676,-0.52539 3.54004,2.45215 0,0 0.26758,3.40918 -2.99414,3.49414 0,0 -0.5459,0.08985 -0.5459,0.08985 0,0 0,0 0,0 0,0 0,0 0,0 z"
         style="fill:#dd2f38;fill-opacity:1;fill-rule:nonzero;stroke:none"
         id="path68" />
      <path
         d="m 53.73291,-32.85059 c 0,0 5.68262,-2.10449 12.21533,0.12989 0,0 -6.80322,3.53906 -11.83984,2.49023 0,0 -2.28174,-0.92383 -0.78272,-2.36133 0,0 0.40723,-0.25879 0.40723,-0.25879 0,0 0,0 0,0 0,0 0,0 0,0 z"
         style="fill:#dd2f38;fill-opacity:1;fill-rule:nonzero;stroke:none"
         id="path70" />
      <path
         d="m 106.82617,-57.375 c 0,-1.63867 1.38086,-2.96875 3.08008,-2.96875 1.70508,0 3.0791,1.33008 3.0791,2.96875 0,1.63574 -1.37402,2.96289 -3.0791,2.96289 -1.69922,0 -3.08008,-1.32715 -3.08008,-2.96289 0,0 0,0 0,0 0,0 0,0 0,0 z"
         style="fill:#ffffff;fill-opacity:1;fill-rule:nonzero;stroke:none"
         id="path72" />
      <path
         d="m 69.56152,-74.0752 c 0,-4.02441 1.20508,-7.29003 2.69287,-7.29003 1.48877,0 2.69288,3.26562 2.69288,7.29003 0,4.03516 -1.20411,7.29981 -2.69288,7.29981 -1.48779,0 -2.69287,-3.26465 -2.69287,-7.29981 0,0 0,0 0,0 0,0 0,0 0,0 z"
         style="fill:#dd2f38;fill-opacity:1;fill-rule:nonzero;stroke:none"
         id="path74" />
      <path
         d="m 196.62695,-155.13086 c 0,0 0.87305,0.72852 0.87305,0.72852 0,0 0,107.11914 0,107.11914 0,0 -43.98828,42.2832 -43.98828,42.2832 0,0 -107.56885,0 -107.56885,0 0,0 -43.44287,-41.96387 -43.44287,-41.96387 0,0 0,-105.86426 0,-105.86426 0,0 43.66162,-42.17187 43.66162,-42.17187 0,0 108.00342,0 108.00342,0 0,0 42.46191,39.86914 42.46191,39.86914 0,0 0,0 0,0 0,0 0,0 0,0 z"
         style="fill:#dd2f38;fill-opacity:1;fill-rule:nonzero;stroke:none"
         id="path76" />
      <path
         d="m 191.94629,-151.56689 c 0,0 0,101.98095 0,101.98095 0,0 -40.72168,39.33985 -40.72168,39.33985 0,0 -102.5625,0 -102.5625,0 0,0 -40.28369,-38.92188 -40.28369,-38.92188 0,0 0,-102.19141 0,-102.19141 0,0 40.28369,-38.92773 40.28369,-38.92773 0,0 102.5625,0 102.5625,0 0,0 40.72168,38.72022 40.72168,38.72022 0,0 0,0 0,0 0,0 0,0 0,0 z"
         style="fill:#ffffff;fill-opacity:1;fill-rule:nonzero;stroke:none"
         id="path78" />
      <path
         d="m 184.76172,-148.52002 c 0,0 0,95.88818 0,95.88818 0,0 -36.47754,35.15039 -36.47754,35.15039 0,0 -96.46289,0 -96.46289,0 0,0 -35.05859,-34.20605 -35.05859,-34.20605 0,0 -0.54297,-0.52637 -0.54297,-0.52637 0,0 0,-97.04541 0,-97.04541 0,0 35.2749,-33.99023 35.2749,-33.99023 0,0 96.57568,0 96.57568,0 0,0 36.69141,34.72949 36.69141,34.72949 0,0 0,0 0,0 0,0 0,0 0,0 z"
         style="fill:#dd2f38;fill-opacity:1;fill-rule:nonzero;stroke:none"
         id="path80" />
      <path
         d="m 57.7002,-151.32471 c 0,0 0,-19.12695 0,-19.12695 0,0 -12.73829,0 -12.73829,0 0,0 0,44.79883 0,44.79883 0,0 12.73829,0 12.73829,0 0,0 -0.0542,-18.06397 -0.0542,-18.06397 0,0 7.34961,18.06397 7.34961,18.06397 0,0 12.70263,0.04 12.70263,0.04 -3.48388,-7.55274 -6.60449,-15.46289 -9.7622,-23.12159 3.70117,-7.34912 7.29248,-14.58496 10.99511,-21.93017 0,0 -11.75732,0 -11.75732,0 0,0 -9.47363,19.33984 -9.47363,19.33984 0,0 0,0 0,0 0,0 0,0 0,0 z"
         style="fill:#ffffff;fill-opacity:1;fill-rule:nonzero;stroke:none"
         id="path82" />
      <path
         d="m 140.21094,-148.52002 c 2.19433,2.32275 7.53027,0.60498 7.31347,4.29688 -1.50878,3.39501 -5.55175,0.94238 -7.83886,0.63085 0,0 -0.43653,4.50977 -0.43653,4.50977 3.375,1.04785 7.73243,1.36133 10.99512,-0.20752 2.61524,-1.89014 3.15918,-4.9331 2.50684,-7.87158 -1.30762,-4.19776 -6.42676,-2.83789 -9.36426,-4.71875 -0.81641,-1.54346 0.0918,-2.67432 1.17871,-2.93848 2.07031,-0.81933 4.91895,0.20899 6.87793,0.63037 0,0 0.54492,-4.19922 0.54492,-4.19922 -2.0664,-0.73193 -4.57519,-0.73193 -7.07715,-0.73193 0,0 -7.06054,0.45459 -6.28125,7.63184 0,0 0.29102,1.94482 1.58106,2.96777 0,0 0,0 0,0 0,0 0,0 0,0 z"
         style="fill:#ffffff;fill-opacity:1;fill-rule:nonzero;stroke:none"
         id="path84" />
      <path
         d="m 108.38672,-148.52002 c 2.19726,2.32275 7.53223,0.60498 7.31348,4.29688 -1.50684,3.39501 -5.55176,0.94238 -7.83887,0.63085 0,0 -0.43457,4.50977 -0.43457,4.50977 3.37597,1.04785 7.72754,1.36133 10.99512,-0.20752 2.61621,-1.89014 3.15722,-4.9331 2.50488,-7.87158 -1.30762,-4.19776 -6.42481,-2.83789 -9.36426,-4.71875 -0.81641,-1.54346 0.0918,-2.67432 1.18164,-2.93848 2.06543,-0.81933 4.91504,0.20899 6.875,0.63037 0,0 0.54492,-4.19922 0.54492,-4.19922 -2.07031,-0.73193 -4.57226,-0.73193 -7.07812,-0.73193 0,0 -7.05762,0.45459 -6.27735,7.63184 0,0 0.28907,1.94482 1.57813,2.96777 0,0 0,0 0,0 0,0 0,0 0,0 z"
         style="fill:#ffffff;fill-opacity:1;fill-rule:nonzero;stroke:none"
         id="path86" />
      <path
         d="m 100.8374,-148.08398 c 0,0 -0.0205,-10.82813 -0.0205,-10.82813 0,0 4.57276,0 4.57276,0 0,0 0,21.19092 0,21.19092 0,0 -5.77051,0 -5.77051,0 -0.98144,-3.24658 -3.04883,-7.83106 -4.03027,-10.97852 0,0 0,10.97852 0,10.97852 0,0 -4.57324,0 -4.57324,0 0,0 0,-20.97852 0,-20.97852 0,0 5.66308,0 5.66308,0 0,0 4.15869,10.61573 4.15869,10.61573 0,0 0,0 0,0 0,0 0,0 0,0 z"
         style="fill:#ffffff;fill-opacity:1;fill-rule:nonzero;stroke:none"
         id="path88" />
      <path
         d="m 162.89453,-74.58008 c 0,0 -0.0186,-10.42773 -0.0186,-10.42773 0,0 4.57129,0 4.57129,0 0,0 0,20.79883 0,20.79883 0,0 -5.77051,0 -5.77051,0 -0.97852,-3.25 -3.04688,-7.8379 -4.02735,-10.98243 0,0 0,10.98243 0,10.98243 0,0 -4.57031,0 -4.57031,0 0,0 0,-20.58985 0,-20.58985 0,0 5.66016,0 5.66016,0 0,0 4.15527,10.21875 4.15527,10.21875 0,0 0,0 0,0 0,0 0,0 0,0 z"
         style="fill:#ffffff;fill-opacity:1;fill-rule:nonzero;stroke:none"
         id="path90" />
      <path
         d="m 137.98438,-137.85107 c 0,0 -4.9004,0 -4.9004,0 -0.32714,-1.36963 -0.32714,-2.7295 -0.87109,-3.98877 0,0 -5.26562,0 -5.26562,0 -0.5459,1.25927 -0.5459,2.61914 -0.87012,3.98877 0,0 -4.90332,0 -4.90332,0 1.08984,-6.81934 2.70703,-13.73047 4.13867,-20.77344 0,0 8.27539,0 8.27539,0 1.52539,6.61035 3.1582,13.7417 4.46582,20.77344 0,0 -0.0693,0 -0.0693,0 0,0 0,0 0,0 0,0 0,0 0,0 z"
         style="fill:#ffffff;fill-opacity:1;fill-rule:nonzero;stroke:none"
         id="path92" />
      <path
         d="m 90.19189,-137.85107 c 0,0 -4.90039,0 -4.90039,0 -0.32714,-1.36963 -0.32714,-2.7295 -0.87011,-3.98877 0,0 -5.26514,0 -5.26514,0 -0.54687,1.25927 -0.54687,2.61914 -0.87061,3.98877 0,0 -4.9038,0 -4.9038,0 1.08984,-6.81934 2.6831,-13.82032 4.13574,-20.77344 0,0 8.27832,0 8.27832,0 1.52441,6.61035 3.15723,13.7417 4.46533,20.77344 0,0 -0.06934,0 -0.06934,0 0,0 0,0 0,0 0,0 0,0 0,0 z"
         style="fill:#ffffff;fill-opacity:1;fill-rule:nonzero;stroke:none"
         id="path94" />
      <path
         d="m 83.61279,-146.21924 c 0,0 -3.37597,0 -3.37597,0 0,0 1.54541,-5.62646 1.54541,-5.62646 0,0 1.83056,5.62646 1.83056,5.62646 0,0 0,0 0,0 0,0 0,0 0,0 z"
         style="fill:#dd2f38;fill-opacity:1;fill-rule:nonzero;stroke:none"
         id="path96" />
      <path
         d="m 131.11133,-146.21924 c 0,0 -3.37598,0 -3.37598,0 0,0 1.54199,-5.62646 1.54199,-5.62646 0,0 1.83399,5.62646 1.83399,5.62646 0,0 0,0 0,0 0,0 0,0 0,0 z"
         style="fill:#dd2f38;fill-opacity:1;fill-rule:nonzero;stroke:none"
         id="path98" />
      <path
         d="m 68.69873,-100.37305 c -4.13818,1.36914 -8.92871,2.93848 -13.50146,1.47852 -3.04883,-1.05176 -5.66456,-3.77979 -6.53516,-6.71826 -0.43018,-3.67334 0.43799,-7.6626 3.81152,-10.07471 4.78907,-3.0376 12.30274,-2.51025 16.98438,0.42676 0,0 0,-8.92237 0,-8.92237 0,0 -5.11621,0 -5.11621,0 0,0 -2.79737,-5.03173 -2.79737,-5.03173 0,0 -2.10351,0 -2.10351,0 0,0 0,5.17089 0,5.17089 0,0 0,0.0684 0,0.0684 0,0 -15.23877,0 -15.23877,0 -3.37793,1.67774 -5.01319,5.14063 -6.86279,7.97608 -2.50196,6.71338 -1.74073,15.62646 3.15771,21.08545 6.42725,5.66601 14.9165,8.81347 24.06348,6.81933 0,0 3.32666,-0.60644 4.86865,-1.56933 0,0 0,-11.27539 0,-11.27539 0,0 -0.73047,0.5664 -0.73047,0.5664 0,0 0,0 0,0 0,0 0,0 0,0 z"
         style="fill:#ffffff;fill-opacity:1;fill-rule:nonzero;stroke:none"
         id="path100" />
      <path
         d="m 116.27734,-87.88281 c 0,0 5.87989,-10.17774 5.87989,-10.17774 7.18457,-10.80761 14.48047,-24.54541 27.87304,-29.16943 2.54493,-0.64063 5.44043,-0.52734 7.07618,1.78613 1.41308,1.46826 1.43945,3.95947 1.04492,5.70801 -2.17578,9.4375 -8.22949,15.80469 -14.5459,23.56201 4.46484,-2.51172 9.03808,-4.61572 13.06641,-8.18457 5.00488,-5.55664 9.47363,-13.42285 5.33398,-20.56006 -2.61621,-3.354 -6.64356,-4.72363 -11.21387,-4.29638 -13.93847,2.71826 -24.1709,14.89648 -32.12011,26.01269 -3.15918,5.25195 -6.96778,10.17481 -9.79883,15.5293 0,0 7.1123,0 7.1123,0 0,0 0.29199,-0.20996 0.29199,-0.20996 0,0 0,0 0,0 0,0 0,0 0,0 z"
         style="fill:#ffffff;fill-opacity:1;fill-rule:nonzero;stroke:none"
         id="path102" />
      <path
         d="m 71.8916,-121.59277 c 0,0 6.09668,0 6.09668,0 0,0 0,20.98242 0,20.98242 0,0 -6.09668,0 -6.09668,0 0,0 0,-20.98242 0,-20.98242 0,0 0,0 0,0 0,0 0,0 0,0 z"
         style="fill:#ffffff;fill-opacity:1;fill-rule:nonzero;stroke:none"
         id="path104" />
      <path
         d="m 102.92969,-115.39063 c 0,0 2.92383,-5.95898 2.92383,-5.95898 0,0 5.66211,0 5.66211,0 0,0 -5.86133,9.63232 -5.86133,9.63232 0,0 -0.0195,10.92774 -0.0195,10.92774 0,0 -0.39649,0 -0.39649,0 0,0 -5.00928,0 -5.00928,0 0,0 -0.0181,-10.92774 -0.0181,-10.92774 0,0 -5.86035,-9.63232 -5.86035,-9.63232 0,0 5.65966,0 5.65966,0 0,0 2.91944,5.95898 2.91944,5.95898 0,0 0,0 0,0 0,0 0,0 0,0 z"
         style="fill:#ffffff;fill-opacity:1;fill-rule:nonzero;stroke:none"
         id="path106" />
      <path
         d="m 96.22314,-79.74805 c 0,0 0,-4.71875 0,-4.71875 0,0 13.14795,0 13.14795,0 0,0 0,4.71875 0,4.71875 0,0 -3.59765,0 -3.59765,0 0,0 -0.0176,15.84571 -0.0176,15.84571 0,0 -5.85889,0 -5.85889,0 0,0 0,-15.82618 0,-15.82618 0,0 -3.67383,-0.01953 -3.67383,-0.01953 0,0 0,0 0,0 0,0 0,0 0,0 z"
         style="fill:#ffffff;fill-opacity:1;fill-rule:nonzero;stroke:none"
         id="path108" />
      <path
         d="m 79.72217,-116.71973 c 0,0 0,-4.71484 0,-4.71484 0,0 13.14795,0 13.14795,0 0,0 0,4.71484 0,4.71484 0,0 -3.59522,0 -3.59522,0 0,0 -0.01806,15.84034 -0.01806,15.84034 0,0 -5.8628,0 -5.8628,0 0,0 0,-15.82032 0,-15.82032 0,0 -3.67187,-0.02 -3.67187,-0.02 0,0 0,0 0,0 0,0 0,0 0,0 z"
         style="fill:#ffffff;fill-opacity:1;fill-rule:nonzero;stroke:none"
         id="path110" />
      <path
         d="m 45.61572,-89.03711 c 4.89844,2.625 10.45166,3.57129 16.4419,3.57129 0,0 0.21631,3.98144 0.21631,3.98144 -3.48438,-1.15136 -7.42139,-2.6914 -11.88428,-2.16503 -1.72754,0.08496 -4.33594,0.4873 -5.42774,2.58691 -0.32714,0.83789 -0.32714,1.46484 0.21875,2.20312 3.84766,3.25 9.79834,1.36426 13.71729,4.19239 5.01123,3.04297 6.64111,9.2373 5.44385,14.90039 -0.87354,5.77441 -6.75,9.5459 -11.86817,11.33301 -7.29297,1.26074 -14.26025,-0.417 -20.57812,-2.3086 0.54492,-3.67676 1.09228,-7.86426 2.07178,-11.64648 5.22167,2.20215 11.64843,4.72461 17.52734,2.09375 0.76465,-0.94141 1.74072,-1.98926 1.08935,-3.25 -4.03027,-3.77539 -10.77929,-1.88477 -15.02539,-5.2461 -4.90039,-2.9375 -5.8789,-8.8125 -4.90039,-13.63671 0.87061,-3.78125 4.31299,-7.39454 8.01368,-9.28125 1.05566,0.62207 3.09277,1.93652 4.94384,2.67187 0,0 0,0 0,0 0,0 0,0 0,0 z"
         style="fill:#ffffff;fill-opacity:1;fill-rule:nonzero;stroke:none"
         id="path112" />
      <path
         d="m 119.21484,-72.03613 c 0,0 0,8.07129 0,8.07129 0,0 5.22754,0 5.22754,0 0,0 0,-20.55274 0,-20.55274 0,0 -5.22754,0 -5.22754,0 0,0 -0.0644,0 -0.0644,0 0,0 0,7.54883 0,7.54883 0,0 -3.08984,0 -3.08984,0 0,0 0,-7.55273 0,-7.55273 0,0 -5.11914,0 -5.11914,0 0,0 0,20.55664 0,20.55664 0,0 4.90039,0 4.90039,0 0,0 0,-8.14649 0,-8.14649 0,0 3.37304,0.0752 3.37304,0.0752 0,0 0,0 0,0 0,0 0,0 0,0 z"
         style="fill:#ffffff;fill-opacity:1;fill-rule:nonzero;stroke:none"
         id="path114" />
      <path
         d="m 142.74805,-64.0332 c 0,0 -5.29492,0 -5.29492,0 0,0 0,-20.4336 0,-20.4336 0,0 8.4746,-0.14355 9.56347,0.20215 0,0 3.08594,0.87402 3.72168,3.33887 1.17676,3.51953 -0.27637,6.23047 -1.96191,7.76758 0.98047,3.03906 1.96191,5.87695 2.94043,8.91504 0,0 -4.90039,0 -4.90039,0 0,0 -1.95996,-6.82129 -1.95996,-6.82129 0,0 -2.06739,0 -2.06739,0 0,0 0,7.03125 0,7.03125 0,0 -0.041,0 -0.041,0 0,0 0,0 0,0 0,0 0,0 0,0 z"
         style="fill:#ffffff;fill-opacity:1;fill-rule:nonzero;stroke:none"
         id="path116" />
      <path
         d="m 131.57422,-72.77539 c 0,0 4.02832,0 4.02832,0 0,0 0,-3.77539 0,-3.77539 0,0 -4.24609,0 -4.24609,0 0,0 0,-4.21289 0,-4.21289 0,0 0.21777,0.01367 0.21777,0.01367 0,0 3.91992,0 3.91992,0 0,0 0,-3.77148 0,-3.77148 0,0 -9.03809,0 -9.03809,0 0,0 0,20.55664 0,20.55664 0,0 9.36524,0 9.36524,0 0,0 0,-4.30079 0,-4.30079 0,0 -4.50195,0 -4.50195,0 0,0 0,-4.54394 0,-4.54394 0,0 0.25488,0.03418 0.25488,0.03418 0,0 0,0 0,0 0,0 0,0 0,0 z"
         style="fill:#ffffff;fill-opacity:1;fill-rule:nonzero;stroke:none"
         id="path118" />
      <path
         d="m 100.59766,-60.91797 c -2.17627,4.19824 -5.11621,8.07813 -7.94873,11.95801 -3.37403,4.93457 -8.9253,9.9668 -13.60694,13.95605 5.98682,2.09961 12.95459,1.99414 19.4878,3.03711 -4.35694,2.41114 -9.36231,3.78028 -14.69874,3.88477 -4.24609,-0.31152 -9.583,-0.52051 -13.71875,-1.99512 -6.31396,3.25586 -13.96142,5.61328 -21.0122,1.6836 -1.08936,-1.26172 -1.08936,-2.52149 -0.76221,-4.19825 0.54541,-1.88672 2.36572,-2.61914 3.70264,-3.35547 6.96875,-2.9375 15.7876,-1.16113 22.97412,0.20801 8.05762,-7.23926 12.51758,-16.47461 17.74463,-25.17871 0,0 7.83838,0 7.83838,0 0,0 0,0 0,0 0,0 0,0 0,0 z"
         style="fill:#ffffff;fill-opacity:1;fill-rule:nonzero;stroke:none"
         id="path120" />
      <path
         d="m 148.19434,-35.39063 c -2.35938,-0.21875 -3.3125,-1.65917 -3.3125,-1.65917 -0.94922,-1.26856 1.04589,-1.70606 2.31543,-1.61719 1.26953,0.08984 2.90527,-0.57031 2.90527,-0.57031 3.99121,-2.31836 3.94434,-6.95313 3.94434,-6.95313 0,-0.30176 -0.27051,-0.12891 -0.27051,-0.12891 -0.27246,0 -1.78809,1.14063 -1.78809,1.14063 -5.98633,3.88183 -12.27637,9.91601 -19.05371,9.54394 -1.41699,-0.21484 -2.61328,-1.36523 -2.93848,-2.83398 0,0 -0.1748,-0.5957 -0.1748,-0.5957 -2.83203,1.4707 -5.81445,3.74316 -9.19043,3.11718 -1.37695,-0.66503 -1.41602,-2.20898 -0.76172,-3.46386 0,0 6.14356,-9.36035 6.14356,-9.36035 0,0 0.13574,-0.34668 0.13574,-0.34668 0,0 0,-0.17969 0,-0.17969 0.0879,-0.60449 -1,0 -1,0 -0.54199,0.22558 -1.49414,0.92383 -1.49414,0.92383 -1.72852,0.91894 -11.84278,12.63476 -11.84278,12.63476 0,0 -4.53418,0 -4.53418,0 0,0 7.84571,-11.10742 7.84571,-11.10742 0,0 0.18359,-0.47461 0.18359,-0.47461 0.043,-0.74512 -0.55371,-0.37793 -0.55371,-0.37793 -4.90137,3.98535 -9.04004,7.86621 -14.26367,11.75195 -1.60645,0.68457 -3.64649,0.86426 -4.79199,-0.208 -1.48584,-2.51172 -0.33448,-3.85157 0.64306,-5.53321 0,0 1.59229,-2.09375 1.59229,-2.09375 0,0 6.57715,-8.08496 6.57715,-8.08496 0,0 3.6289,0 3.6289,0 0,0 0.54492,0 0.54492,0 -0.13671,0.08496 -3.29394,3.95899 -3.29394,3.95899 -2.72168,3.67285 -5.52588,6.39257 -7.04981,10.37304 0,0 -0.22754,0.87891 0.90528,0.48536 0,0 0.26269,-0.0586 0.26269,-0.0586 0,0 18.18457,-13.94531 18.18457,-13.94531 0.7627,-0.42676 1.74121,-0.84277 2.50489,-0.42676 0,0 1.23046,0.70508 0.0527,3.45508 0,0 -0.17969,0.57031 0.40918,0.26269 0,0 0.19141,-0.1455 0.19141,-0.1455 2.71777,-2.10352 5.22656,-4.40625 9.1455,-3.7793 1.08985,0.31641 1.20118,1.57617 0.87012,2.31055 -1.95898,4.08984 -4.13769,6.43261 -6.53516,10.3125 0,0 -0.35937,0.70507 0.63672,0.35351 1.00098,-0.35351 4.53614,-1.74804 5.08301,-2.22851 0,0 0.31641,-1.18067 0.58887,-1.61719 0,0 0.13672,-0.30859 0.13672,-0.30859 1.85937,-4.89747 7.49023,-8.40137 12.61035,-9.55762 1.52441,-0.20899 3.15625,0.20898 3.70312,1.68066 0.98047,2.09571 -0.52832,4.03125 -1.74414,4.92871 -3.18457,1.80664 -6.45019,3.25684 -10.56054,3.77637 -1.08887,1.15625 -1.65235,3.54297 -0.74512,4.24414 3.31543,1.79102 8.25684,-2.77344 12.28418,-5.18555 0,0 7.36035,-5.53027 7.72266,-6.00683 0.36328,-0.48145 2.45117,-2.97168 4.99414,-2.97168 0,0 0.53906,-0.08985 0.85644,-0.08985 0.31934,0 0.14942,0.25782 0.14942,0.25782 -2.50489,1.15234 -1.95997,3.56445 -2.39747,5.66211 -0.75976,2.72558 -2.28711,5.24609 -4.24609,7.55957 0,0 -0.30859,0.208 -0.30859,0.208 0,0 0.54492,0 1.09179,0 0.54297,0 8.8418,-0.48046 8.8418,-0.48046 0,0 -3.08496,3.36425 -3.08496,3.36425 0,0 -10.43164,0.26465 -10.43164,0.26465 0,0 -1.0918,-0.05176 -1.31738,-0.17969 0,0 0,0 0,0 0,0 0,0 0,0 z"
         style="fill:#ffffff;fill-opacity:1;fill-rule:nonzero;stroke:none"
         id="path122" />
      <path
         d="m 135.90332,-43.91699 c 1.2207,-3.18653 3.03906,-4.71582 6.12305,-6.47168 0,0 1.85937,-1.00293 3.26562,0.22265 0,0 0.9961,1.51368 -0.67969,2.79981 -2.40527,1.83203 -8.70898,3.44922 -8.70898,3.44922 0,0 0,0 0,0 0,0 0,0 0,0 z"
         style="fill:#dd2f38;fill-opacity:1;fill-rule:nonzero;stroke:none"
         id="path124" />
      <path
         d="m 64.44482,-73.94336 c 0,-6.01758 3.48584,-10.89551 7.7837,-10.89551 4.30029,0 7.78466,4.87793 7.78466,10.89551 0,6.0166 -3.48437,10.88965 -7.78466,10.88965 -4.29786,0 -7.7837,-4.87305 -7.7837,-10.88965 0,0 0,0 0,0 0,0 0,0 0,0 z"
         style="fill:#ffffff;fill-opacity:1;fill-rule:nonzero;stroke:none"
         id="path126" />
      <path
         d="m 89.98096,-69.11816 c 0,0.96289 -0.74707,1.73828 -1.66602,1.73828 -0.91943,0 -1.66064,-0.77539 -1.66064,-1.73828 0,0 0.0874,-0.11914 0.0874,-0.11914 0,0 0,-15.10645 0,-15.10645 0,0 -5.33594,0 -5.33594,0 0,0 0,14.46191 0,14.46191 0,0 -0.07666,0 -0.07666,0 0,3.71192 3.02735,6.73145 6.76172,6.73145 3.73096,0 6.76172,-3.01953 6.76172,-6.73145 0,0 0.05469,-0.208 0.05469,-0.208 0,0 0,-14.25391 0,-14.25391 0,0 -4.89795,0 -4.89795,0 0,0 -0.11084,15.31641 -0.11084,15.31641 0,0 0.08252,-0.09082 0.08252,-0.09082 0,0 0,0 0,0 0,0 0,0 0,0 z"
         style="fill:#ffffff;fill-opacity:1;fill-rule:nonzero;stroke:none"
         id="path128" />
      <path
         d="m 142.57031,-74.87402 c 0,0 0,-6.03614 0,-6.03614 0,0 3.17676,-0.52539 3.54004,2.45215 0,0 0.26758,3.40918 -2.99414,3.49414 0,0 -0.5459,0.08985 -0.5459,0.08985 0,0 0,0 0,0 0,0 0,0 0,0 z"
         style="fill:#dd2f38;fill-opacity:1;fill-rule:nonzero;stroke:none"
         id="path130" />
      <path
         d="m 53.73291,-32.85059 c 0,0 5.68262,-2.10449 12.21533,0.12989 0,0 -6.80322,3.53906 -11.83984,2.49023 0,0 -2.28174,-0.92383 -0.78272,-2.36133 0,0 0.40723,-0.25879 0.40723,-0.25879 0,0 0,0 0,0 0,0 0,0 0,0 z"
         style="fill:#dd2f38;fill-opacity:1;fill-rule:nonzero;stroke:none"
         id="path132" />
      <path
         d="m 106.82617,-57.375 c 0,-1.63867 1.38086,-2.96875 3.08008,-2.96875 1.70508,0 3.0791,1.33008 3.0791,2.96875 0,1.63574 -1.37402,2.96289 -3.0791,2.96289 -1.69922,0 -3.08008,-1.32715 -3.08008,-2.96289 0,0 0,0 0,0 0,0 0,0 0,0 z"
         style="fill:#ffffff;fill-opacity:1;fill-rule:nonzero;stroke:none"
         id="path134" />
      <path
         d="m 69.56152,-74.0752 c 0,-4.02441 1.20508,-7.29003 2.69287,-7.29003 1.48877,0 2.69288,3.26562 2.69288,7.29003 0,4.03516 -1.20411,7.29981 -2.69288,7.29981 -1.48779,0 -2.69287,-3.26465 -2.69287,-7.29981 0,0 0,0 0,0 0,0 0,0 0,0 z"
         style="fill:#dd2f38;fill-opacity:1;fill-rule:nonzero;stroke:none"
         id="path136" />
    </g>
  </g>
</svg>
