<svg
              width="137"
              height="38"
              viewBox="0 0 137 38"
              fill="none"
              xmlns="http://www.w3.org/2000/svg"
            >
              <path
                d="M37.5256 30.8821V31.5611C37.1992 31.045 36.5191 30.7734 35.8118 30.7734C34.6693 30.7734 33.418 31.4524 33.418 33.1635C33.418 34.8746 34.6693 35.5265 35.8118 35.5265C36.1461 35.5465 36.4798 35.4794 36.7802 35.3318C37.0807 35.1842 37.3375 34.9611 37.5256 34.6845V35.3363C37.5256 36.0968 37.0903 36.7487 35.8934 36.7487C35.1045 36.7487 34.6149 36.5857 34.4517 35.9882H33.6356C33.7988 37.2647 34.8869 37.4277 35.8118 37.4277C37.6072 37.4277 38.3689 36.7487 38.3689 35.0919V30.8821H37.5256ZM35.9206 34.7931C34.9141 34.7931 34.3157 34.1141 34.3157 33.1635C34.3157 32.2129 34.9141 31.5068 35.9206 31.5068C36.9271 31.5068 37.5256 32.2129 37.5256 33.1635C37.5256 34.1141 36.9271 34.7931 35.9206 34.7931Z"
                fill="white"
              />
              <path
                d="M39.8349 32.3231C39.9438 31.1824 40.6782 30.7207 41.984 30.7207C42.8817 30.7207 43.997 30.9651 43.997 32.0244V34.5231C43.997 34.7947 44.1058 34.9034 44.3778 34.9034H44.677V35.528L44.0242 35.5824C43.6161 35.5824 43.3169 35.4466 43.2625 34.9305C42.9361 35.3922 42.12 35.691 41.4127 35.691C39.971 35.691 39.6445 34.8762 39.6445 34.2787C39.6445 33.6811 40.107 33.0021 41.5215 32.8663L42.4464 32.7577C42.9361 32.7034 43.2081 32.6219 43.2081 32.1873C43.2081 31.7528 42.6368 31.4269 41.9568 31.4269C41.2767 31.4269 40.6238 31.6441 40.5966 32.3503L39.8349 32.3231ZM43.2081 33.0836C43.0993 33.2194 42.8817 33.3009 42.392 33.3552L41.4671 33.491C40.8142 33.5725 40.4606 33.7626 40.4606 34.2243C40.4606 34.6861 40.8687 34.9577 41.4943 34.9577C42.12 34.9577 43.2081 34.4416 43.2081 33.6811V33.0836Z"
                fill="white"
              />
              <path
                d="M46.3394 34.0342C46.3394 34.4416 46.6386 34.9577 47.6995 34.9577C48.7604 34.9577 49.0325 34.5774 49.0325 34.2515C49.0325 33.9256 48.8692 33.7355 48.2164 33.6268L46.829 33.4367C46.5161 33.4164 46.2223 33.2795 46.0057 33.0531C45.7891 32.8268 45.6655 32.5275 45.6593 32.2145C45.6593 31.2911 46.421 30.7207 47.6451 30.7207C48.8692 30.7207 49.7125 31.3725 49.7669 32.2688H48.9508C48.9236 31.8071 48.5156 31.3997 47.6451 31.3997C46.7746 31.3997 46.4754 31.5627 46.4754 32.1059C46.4754 32.6491 46.6114 32.5947 47.2099 32.6762L48.4068 32.8663C49.4949 33.0021 49.9301 33.4367 49.9301 34.0885C49.9301 34.7404 49.0597 35.6638 47.7267 35.6638C46.3938 35.6638 45.5777 35.3651 45.4961 34.0342H46.3394Z"
                fill="white"
              />
              <path
                d="M54.4727 30.8842H55.3159V31.5904C55.5007 31.3087 55.7562 31.0803 56.0568 30.9278C56.3575 30.7753 56.6929 30.7041 57.0297 30.7212C58.0906 30.7212 58.8795 31.2101 58.8795 32.3508V35.5014H58.0362V32.541C58.0362 31.862 57.6282 31.4546 56.7577 31.4546C56.57 31.4433 56.382 31.4709 56.2056 31.5358C56.0292 31.6007 55.8681 31.7014 55.7327 31.8316C55.5972 31.9617 55.4902 32.1185 55.4185 32.292C55.3468 32.4656 55.3118 32.6521 55.3159 32.8397V35.5014H54.4727V30.8842Z"
                fill="white"
              />
              <path
                d="M60.374 32.3231C60.4828 31.1824 61.2445 30.7207 62.5502 30.7207C63.4479 30.7207 64.5632 30.9651 64.5632 32.0244V34.5231C64.5632 34.7947 64.672 34.9034 64.9441 34.9034H65.2161V35.528L64.5632 35.5824C64.4701 35.5989 64.3744 35.5942 64.2834 35.5686C64.1924 35.5429 64.1084 35.497 64.0377 35.4343C63.967 35.3715 63.9114 35.2936 63.8753 35.2063C63.8391 35.1191 63.8232 35.0248 63.8288 34.9305C63.5023 35.3922 62.6862 35.691 61.979 35.691C60.51 35.691 60.1836 34.8762 60.1836 34.2787C60.1836 33.6811 60.6732 33.0021 62.0606 32.8663L63.0127 32.7577C63.4751 32.7034 63.7744 32.6219 63.7744 32.1873C63.7744 31.7528 63.2031 31.4269 62.523 31.4269C61.843 31.4269 61.1901 31.6441 61.1629 32.3503L60.374 32.3231ZM63.7744 33.0836C63.6655 33.2194 63.4207 33.3009 62.9583 33.3552L62.0062 33.491C61.3533 33.5725 61.0269 33.7626 61.0269 34.2243C61.0269 34.6861 61.4349 34.9577 62.0334 34.9577C62.6318 34.9577 63.7744 34.4416 63.7744 33.6811V33.0836Z"
                fill="white"
              />
              <path
                d="M66.6594 29.4707H67.5027V30.883H68.754V31.562H67.5027V34.4138C67.5027 34.7941 67.7475 34.9027 68.1828 34.9027L68.754 34.8484V35.5817C68.4489 35.637 68.1393 35.6642 67.8291 35.6632C66.9858 35.6632 66.6594 35.2286 66.6594 34.5496V31.562H65.7617V30.883H66.6594V29.4707Z"
                fill="white"
              />
              <path
                d="M74.2742 35.5H73.4581V34.7939H73.4309C73.2461 35.0755 72.9907 35.3039 72.69 35.4564C72.3893 35.6089 72.0539 35.6801 71.7171 35.663C70.6562 35.663 69.8945 35.1741 69.8945 34.0334V30.8828H70.7106V33.8433C70.7106 34.5223 71.1187 34.9025 72.0164 34.9025C72.914 34.9025 73.4581 34.4408 73.4581 33.5445V30.8828H74.2742V35.5Z"
                fill="white"
              />
              <path
                d="M75.7969 30.8832H76.6402V31.7252C77.0482 30.9919 77.5923 30.7203 78.1363 30.7203C78.3015 30.7085 78.4674 30.7269 78.626 30.7746V31.7252C78.4314 31.6697 78.2299 31.6422 78.0275 31.6437C77.2114 31.6437 76.6402 32.1597 76.6402 33.1647V35.5004H75.7969V30.8832Z"
                fill="white"
              />
              <path
                d="M79.6865 32.3231C79.7953 31.1824 80.557 30.7207 81.8627 30.7207C82.7332 30.7207 83.8757 30.9651 83.8757 32.0244V34.5231C83.8757 34.7947 83.9845 34.9034 84.2294 34.9034H84.5286V35.528L83.8757 35.5824C83.7813 35.5983 83.6846 35.5933 83.5924 35.5678C83.5001 35.5422 83.4147 35.4967 83.342 35.4345C83.2693 35.3724 83.2112 35.295 83.1718 35.2079C83.1324 35.1208 83.1127 35.0261 83.1141 34.9305C82.7876 35.3922 81.9715 35.691 81.2643 35.691C79.8225 35.691 79.4961 34.8762 79.4961 34.2787C79.4961 33.6811 79.9585 33.0021 81.3731 32.8663L82.3252 32.7577C82.7876 32.7034 83.0869 32.6219 83.0869 32.1873C83.0869 31.7528 82.4884 31.4269 81.8083 31.4269C81.1283 31.4269 80.5026 31.6441 80.4754 32.3503L79.6865 32.3231ZM83.0869 33.0836C82.9508 33.2194 82.7332 33.3009 82.2708 33.3552L81.3187 33.491C80.6658 33.5725 80.3122 33.7626 80.3122 34.2243C80.3122 34.6861 80.7474 34.9577 81.3459 34.9577C81.9443 34.9577 83.0869 34.4416 83.0869 33.6811V33.0836Z"
                fill="white"
              />
              <path
                d="M86.4331 29.1445H85.5898V35.4755H86.4331V29.1445Z"
                fill="white"
              />
              <path
                d="M94.6241 30.8828H95.549L93.5904 35.5H92.6655L90.6797 30.8828H91.659L93.1551 34.5223L94.6241 30.8828Z"
                fill="white"
              />
              <path
                d="M97.2064 33.4639C97.2411 33.8672 97.43 34.2418 97.7339 34.5098C98.0378 34.7779 98.4334 34.9188 98.8386 34.9034C99.1281 34.919 99.4159 34.8503 99.667 34.7056C99.9181 34.561 100.122 34.3466 100.253 34.0886H101.124C100.959 34.5535 100.653 34.9554 100.248 35.2379C99.843 35.5204 99.3597 35.6694 98.8658 35.6638C97.1792 35.6638 96.3359 34.5231 96.3359 33.1923C96.3359 31.8614 97.1792 30.7207 98.8658 30.7207C100.036 30.7207 101.232 31.4269 101.232 33.3281V33.4639H97.2064ZM100.362 32.7577C100.315 32.3906 100.133 32.054 99.8516 31.8131C99.5701 31.5723 99.2091 31.4443 98.8386 31.454C98.4604 31.4367 98.0892 31.5606 97.7975 31.8016C97.5059 32.0427 97.3145 32.3835 97.2608 32.7577H100.362Z"
                fill="white"
              />
              <path
                d="M102.594 29.1719H103.437V31.5891C103.622 31.3075 103.877 31.0791 104.178 30.9266C104.479 30.7741 104.814 30.7029 105.151 30.72C106.212 30.72 107.001 31.2089 107.001 32.3496V35.5002H106.157V32.5397C106.157 31.8607 105.749 31.4533 104.852 31.4533C104.666 31.4459 104.481 31.4764 104.308 31.543C104.135 31.6096 103.977 31.7109 103.844 31.8407C103.712 31.9705 103.607 32.1259 103.537 32.2975C103.467 32.4691 103.433 32.6532 103.437 32.8385V35.5002H102.594V29.1719Z"
                fill="white"
              />
              <path
                d="M108.496 29.1719H109.339V30.1225H108.496V29.1719ZM108.496 30.883H109.339V35.5002H108.496V30.883Z"
                fill="white"
              />
              <path
                d="M115.324 33.8169C114.97 35.175 114.181 35.6638 113.039 35.6638C111.325 35.6638 110.672 34.4145 110.672 33.2194C110.672 32.0244 111.461 30.7207 113.039 30.7207C114.616 30.7207 115.133 31.2911 115.296 32.4318H114.426C114.317 31.8343 113.882 31.454 113.093 31.454C112.304 31.454 111.542 32.2145 111.542 33.1923C111.542 34.17 112.032 34.9034 113.093 34.9034C114.154 34.9034 114.263 34.5774 114.426 33.8169H115.324Z"
                fill="white"
              />
              <path
                d="M121.009 35.5H120.165V34.7939C119.98 35.0755 119.725 35.3039 119.424 35.4564C119.124 35.6089 118.788 35.6801 118.451 35.663C117.391 35.663 116.629 35.1741 116.629 34.0334V30.8828H117.445V33.8433C117.445 34.5223 117.853 34.9025 118.751 34.9025C119.648 34.9025 120.165 34.4408 120.165 33.5445V30.8828H121.009V35.5Z"
                fill="white"
              />
              <path
                d="M123.375 29.1445H122.531V35.4755H123.375V29.1445Z"
                fill="white"
              />
              <path
                d="M124.87 32.3231C124.979 31.1824 125.741 30.7207 127.046 30.7207C128.352 30.7207 129.059 30.9651 129.059 32.0244V34.5231C129.059 34.7947 129.168 34.9034 129.44 34.9034H129.712V35.528L129.059 35.5824C128.966 35.5989 128.871 35.5942 128.78 35.5686C128.688 35.5429 128.604 35.497 128.534 35.4343C128.463 35.3715 128.408 35.2936 128.371 35.2063C128.335 35.1191 128.319 35.0248 128.325 34.9305C127.971 35.3922 127.155 35.691 126.448 35.691C125.006 35.691 124.68 34.8762 124.68 34.2787C124.68 33.6811 125.169 33.0021 126.557 32.8663L127.509 32.7577C127.971 32.7034 128.27 32.6219 128.27 32.1873C128.27 31.7528 127.672 31.4269 127.019 31.4269C126.366 31.4269 125.686 31.6441 125.659 32.3503L124.87 32.3231ZM128.27 33.0836C128.134 33.2194 127.917 33.3009 127.454 33.3552L126.502 33.491C125.849 33.5725 125.523 33.7626 125.523 34.2243C125.523 34.6861 125.931 34.9577 126.529 34.9577C127.128 34.9577 128.27 34.4416 128.27 33.6811V33.0836Z"
                fill="white"
              />
              <path
                d="M130.801 30.8822H131.617V31.7242H131.644C131.77 31.4305 131.978 31.1794 132.244 31.0011C132.509 30.8228 132.82 30.7249 133.14 30.7193C133.296 30.7055 133.454 30.724 133.603 30.7736V31.7242C133.417 31.6686 133.225 31.6412 133.031 31.6427C132.188 31.6427 131.617 32.1588 131.617 33.1637V35.4994H130.801V30.8822Z"
                fill="white"
              />
              <path
                d="M55.0703 17.3314V18.1734C55.0703 19.0425 55.5872 19.3412 56.4577 19.3412H62.8775C64.4825 19.3412 65.1625 18.9882 65.1625 17.1413V16.082H56.3488C55.5328 16.082 55.0703 16.3536 55.0703 17.3314Z"
                fill="white"
              />
              <path
                d="M91.4928 12.1973H86.1338C84.5561 12.1973 84.0664 12.659 84.0664 14.3158V15.9454C84.0664 17.2762 84.5561 17.6021 86.1338 17.6021H93.7234V14.2886C93.7234 12.659 93.1793 12.1973 91.4928 12.1973Z"
                fill="white"
              />
              <path
                d="M102.703 17.3314V18.1734C102.703 19.0425 103.22 19.3412 104.09 19.3412H110.51C112.115 19.3412 112.795 18.9882 112.795 17.1413V16.082H103.982C103.193 16.082 102.703 16.3536 102.703 17.3314Z"
                fill="white"
              />
              <path
                d="M134.502 13.4735C134.721 13.3593 134.915 13.2023 135.073 13.0117C135.379 12.7161 135.621 12.3613 135.785 11.969C135.948 11.5768 136.03 11.1552 136.025 10.7303C136.025 9.8659 135.681 9.03691 135.069 8.42569C134.457 7.81447 133.627 7.47109 132.761 7.47109C131.895 7.47109 131.065 7.81447 130.453 8.42569C129.84 9.03691 129.497 9.8659 129.497 10.7303C129.502 11.0913 129.567 11.4491 129.687 11.7895H129.116V9.29081C129.119 8.97593 129.06 8.6635 128.941 8.37188C128.822 8.08025 128.646 7.81532 128.423 7.59265C128.2 7.36998 127.934 7.19407 127.642 7.07524C127.35 6.95642 127.037 6.89708 126.722 6.90073H122.016C119.431 6.90073 118.316 7.63405 117.691 8.17725C117.416 8.43099 117.17 8.71325 116.956 9.01921C116.82 8.85625 116.657 8.72045 116.494 8.55749C115.133 7.41677 113.311 6.90073 110.699 6.90073H107.299C106.664 6.90073 106.055 7.15254 105.606 7.60076C105.157 8.04899 104.905 8.65692 104.905 9.29081V11.5994H103.627C101.777 11.5994 100.39 11.8982 99.3287 12.5229C99.1383 11.2192 98.6758 9.80686 97.5333 8.69329C95.8195 7.09085 93.3441 6.90073 91.6303 6.90073H86.1081C84.476 6.90073 82.6534 7.03653 81.1844 7.87849C80.9679 7.57595 80.6822 7.32939 80.351 7.15932C80.0198 6.98926 79.6527 6.9006 79.2803 6.90073H77.7297V5.78716C77.7333 5.47458 77.6747 5.16439 77.5574 4.87457C77.4401 4.58474 77.2663 4.32104 77.0462 4.09874C76.8261 3.87643 76.564 3.69995 76.2751 3.5795C75.9861 3.45906 75.6761 3.39706 75.3631 3.39708H71.8811C71.5657 3.39344 71.2528 3.45277 70.9607 3.57159C70.6686 3.69042 70.4033 3.86633 70.1803 4.089C69.9573 4.31167 69.7811 4.5766 69.6621 4.86822C69.543 5.15985 69.4836 5.47228 69.4873 5.78716V6.98221C68.9026 7.13795 68.4036 7.51888 68.0999 8.04145C66.8214 7.25381 65.162 6.90073 63.0402 6.90073H59.6671C59.3517 6.89708 59.0388 6.95642 58.7467 7.07524C58.4546 7.19407 58.1893 7.36998 57.9662 7.59265C57.7432 7.81532 57.567 8.08025 57.448 8.37188C57.329 8.6635 57.2696 8.97593 57.2732 9.29081V11.5994H55.9675C54.0905 11.5994 52.6488 11.8982 51.5879 12.5772C51.3702 11.2192 50.8806 9.83401 49.7109 8.74761C47.9427 7.11801 45.3856 6.90073 43.3454 6.90073H39.2106C37.1704 6.90073 34.6406 7.11801 32.8724 8.74761C31.1042 10.3772 30.8594 12.7673 30.8594 14.6685V21.6758C30.8538 21.8032 30.8629 21.9308 30.8866 22.056C29.957 19.9249 28.669 17.9682 27.0782 16.271C26.0601 15.2077 24.8747 14.3178 23.569 13.6364C24.2006 13.1606 24.7838 12.6239 25.31 12.034C27.2414 9.86117 28.5471 6.62913 29.2272 2.44647C29.2997 1.94417 29.1764 1.43325 28.8829 1.01893C28.5894 0.604615 28.1479 0.31844 27.6494 0.219344C26.8038 0.0830086 25.949 0.0103802 25.0924 0.00206706C22.4893 -0.0484297 19.9532 0.827699 17.9381 2.47363C16.2243 3.8588 14.7826 5.84148 13.6672 8.42169C13.3279 7.87062 12.9263 7.36028 12.4703 6.90073C11.7638 6.15778 10.9108 5.56907 9.96505 5.17173C9.01929 4.77439 8.00133 4.57703 6.97537 4.59212C6.41069 4.59796 5.84712 4.64334 5.2888 4.72792C4.78529 4.82093 4.33723 5.10454 4.03817 5.51954C3.7391 5.93453 3.61216 6.44883 3.68384 6.95504C4.11908 9.67105 4.96236 11.7081 6.24089 13.1475L6.51292 13.4463C5.7216 13.9277 4.99098 14.5022 4.3367 15.1574C2.45971 17.0858 1.01797 19.9376 0.0658709 23.6313C-0.00192917 23.882 -0.0175983 24.1438 0.0198295 24.4007C0.0572572 24.6576 0.146989 24.9042 0.283493 25.1251C0.571476 25.5717 1.01885 25.8921 1.53482 26.0214C2.59762 26.2606 3.68257 26.388 4.77194 26.4017C7.41061 26.4017 9.64124 25.5597 11.4094 23.9301C12.3617 23.04 13.1531 21.9926 13.7488 20.8338C14.6193 23.1425 15.7074 25.0708 17.0404 26.5918C19.5974 29.4979 22.9434 30.9646 27.051 30.9646C28.5625 30.947 30.0675 30.7649 31.5394 30.4214C31.8809 30.3518 32.1937 30.1815 32.4371 29.9325C32.5674 29.8257 32.6778 29.697 32.7636 29.5522C32.9321 29.2629 33.0256 28.9362 33.0356 28.6016C33.0578 28.4188 33.0392 28.2333 32.9812 28.0584C32.5524 26.3871 32.0163 24.745 31.3762 23.1425C31.5958 23.4313 31.8798 23.6651 32.2055 23.8254C32.5313 23.9857 32.89 24.068 33.2532 24.0659H36.6536C36.9689 24.0695 37.2819 24.0102 37.5739 23.8914C37.866 23.7726 38.1314 23.5966 38.3544 23.374C38.5774 23.1513 38.7536 22.8864 38.8726 22.5947C38.9916 22.3031 39.051 21.9907 39.0474 21.6758V14.6142H43.5359V21.6758C43.5322 21.9907 43.5916 22.3031 43.7106 22.5947C43.8297 22.8864 44.0058 23.1513 44.2289 23.374C44.4519 23.5966 44.7172 23.7726 45.0093 23.8914C45.3014 24.0102 45.6143 24.0695 45.9297 24.0659H49.33C49.7498 24.0677 50.1625 23.9579 50.5258 23.7479C50.8891 23.5379 51.19 23.2352 51.3974 22.8708C52.54 23.6857 54.0905 24.0659 56.2123 24.0659H62.9042C64.0088 24.0814 65.112 23.9813 66.1957 23.7671C67.2126 23.5477 68.1633 23.0917 68.9704 22.4363L69.4873 21.8931C69.5417 22.4886 69.8178 23.0421 70.2609 23.4444C70.7041 23.8466 71.2822 24.0684 71.8811 24.0659H75.3631C75.6761 24.0659 75.9861 24.0039 76.2751 23.8835C76.564 23.763 76.8261 23.5865 77.0462 23.3642C77.2663 23.1419 77.4401 22.8782 77.5574 22.5884C77.6747 22.2986 77.7333 21.9884 77.7297 21.6758V14.4241H78.3554V16.1352C78.3554 18.4166 79.0354 20.0734 80.4228 21.1869C81.8101 22.3005 83.0614 22.5449 85.1832 22.6264V25.3967C85.1879 25.534 85.2062 25.6705 85.2376 25.8041C85.2611 25.9519 85.2975 26.0973 85.3465 26.2387C85.4025 26.3912 85.4755 26.537 85.5641 26.6733C85.7481 26.9385 85.9785 27.1685 86.2441 27.3523C86.3797 27.4496 86.5257 27.5315 86.6794 27.5967L87.1418 27.7325H92.664C93.0638 27.7421 93.4637 27.724 93.8609 27.6782C94.2732 27.6456 94.6824 27.582 95.085 27.4881C96.02 27.2751 96.8886 26.8368 97.6149 26.2115C98.502 25.3699 99.0935 24.265 99.3015 23.061C100.417 23.74 101.886 24.0659 103.844 24.0659H110.563C111.659 24.0803 112.753 23.9802 113.828 23.7671C114.736 23.577 115.591 23.1873 116.33 22.6264C116.519 23.053 116.828 23.416 117.219 23.6714C117.61 23.9268 118.067 24.0638 118.534 24.0659H129.197C130.082 24.0763 130.965 24.0036 131.836 23.8486C132.687 23.6888 133.483 23.3149 134.148 22.7622C135.59 21.54 135.78 19.7746 135.78 18.3894V17.7376C135.803 16.989 135.73 16.2406 135.563 15.5105C135.377 14.7566 135.013 14.0582 134.502 13.4735ZM13.368 14.7228C13.2592 14.9401 13.096 15.1846 12.96 15.4018L12.4159 16.0537C11.0014 17.6561 8.68914 18.8783 5.50642 19.7746L4.3367 20.0734C8.47152 20.2635 11.2734 19.3944 12.7423 17.5203L13.096 17.0314L13.2864 16.6512C13.1504 17.1401 13.0144 17.5746 12.8784 18.0092C11.0014 23.2783 7.38341 25.3153 1.94286 24.1202C1.96256 24.0154 1.99932 23.9144 2.05167 23.8215C3.303 19.0684 5.39761 16.0265 8.2539 14.7228C9.48029 14.1942 10.8089 13.9437 12.1439 13.9895L12.9872 14.0438L13.504 14.1253H13.64C13.5659 14.3316 13.475 14.5314 13.368 14.7228ZM12.8784 13.1475L12.5519 13.0117C12.0348 12.7684 11.5578 12.4479 11.1374 12.0611C9.94047 11.0291 8.85236 9.39945 7.87306 7.22665L7.79145 7.06369C8.11788 9.42661 8.77075 11.1377 9.75005 12.2513C10.1433 12.6794 10.614 13.0295 11.1374 13.2833C11.4896 13.4241 11.8538 13.5332 12.2255 13.6093C10.7293 13.6907 9.45082 13.3648 8.44431 12.5772C7.00257 11.4636 6.07768 9.50809 5.61523 6.65629H5.66964C9.2876 6.0316 11.8175 7.85133 13.2592 12.0883C13.2435 12.1022 13.2337 12.1217 13.232 12.1426H13.2864L13.368 12.4414C13.4437 12.6364 13.5073 12.836 13.5584 13.0389L13.64 13.392C13.3788 13.3353 13.1237 13.2534 12.8784 13.1475ZM14.9186 13.0932L15.0546 12.8216L15.2178 12.4957L15.3538 12.2513C16.85 9.69821 19.9239 7.55257 24.5755 5.78716L23.4602 5.8958C19.2438 6.439 16.4419 7.79701 15.109 10.0241L15.4354 9.20933C17.8837 3.59625 21.8281 1.23332 27.2686 2.12055H27.323C26.4163 7.60689 24.4305 11.1286 21.3656 12.6858C19.7335 13.5006 17.8021 13.7722 15.5986 13.4735H15.4898L14.8098 13.3648C14.837 13.2833 14.8914 13.2019 14.9186 13.0932ZM45.9297 21.6758V14.7771C45.9297 12.713 45.3584 12.1969 43.155 12.1969H39.4282C37.2792 12.1969 36.6536 12.713 36.6536 14.7771V21.6758H33.2532V14.6685C33.2532 10.7031 34.5861 9.29081 39.2106 9.29081H43.3454C47.9699 9.29081 49.33 10.7031 49.33 14.6685V16.271C49.3028 16.5697 49.2756 16.8956 49.2756 17.2487V18.4166C49.2756 18.7425 49.3028 19.0413 49.33 19.34V21.6758H45.9297ZM51.6967 18.9326C51.6741 18.7616 51.665 18.5891 51.6695 18.4166C51.665 18.5891 51.6741 18.7616 51.6967 18.9326ZM68.5624 16.8685C68.5624 20.4808 67.311 21.6758 62.9042 21.6758H56.2123C53.084 21.6758 51.9687 20.7252 51.7239 19.1499V16.4339C51.9415 14.8586 53.0024 13.9623 55.9675 13.9623H65.162V13.6907C65.162 12.1155 64.5636 11.7081 63.0402 11.7081H59.6671V9.29081H63.0402C65.4069 9.29081 66.903 9.77969 67.7463 10.8389C68.5896 11.8982 68.5624 12.5772 68.5624 13.8537V16.8685ZM79.2803 12.0611H75.3631V21.6758H71.8811V12.0611H70.1401V9.29081H71.8811V5.78716H75.3631V9.29081H79.2803V12.0611ZM97.0436 21.4585C97.0436 24.2289 95.7379 25.3967 92.664 25.3967H87.5771V22.5992H92.3376C93.3441 22.5992 93.7249 22.2462 93.7249 21.2684V20.2635H85.9449C82.1365 20.2635 80.7492 19.1228 80.7492 16.1352V13.9352C80.7764 12.3327 81.0212 11.2463 81.6469 10.513C82.2726 9.77969 83.8231 9.29081 86.1081 9.29081H91.6303C95.7379 9.29081 97.0436 10.7031 97.0436 14.2339V21.4585ZM99.3287 18.7154C99.3287 18.6339 99.3015 18.5252 99.3015 18.4166C99.3015 18.308 99.3287 18.6339 99.3287 18.7154ZM116.222 16.8685C116.222 20.4808 114.97 21.6758 110.563 21.6758H103.844C100.961 21.6758 99.7911 20.861 99.4375 19.503V16.108C99.7639 14.7228 100.879 13.9623 103.627 13.9623H112.794V13.6907C112.794 12.1155 112.196 11.7081 110.699 11.7081H107.299V9.29081H110.699C114.236 9.29081 115.868 10.4315 116.167 12.9031C116.194 13.2019 116.222 13.5278 116.222 13.8537V16.8685ZM133.386 18.3894C133.386 20.8338 132.679 21.6758 129.197 21.6758H118.534V19.0141H128.762C129.687 19.0141 130.013 18.7425 130.013 17.9006V17.4932C130.013 16.5697 129.687 16.4611 128.871 16.4611H121.907C119.54 16.4611 118.779 15.7006 118.615 14.1796V13.8537C118.615 13.5006 118.588 13.1475 118.561 12.8216V12.2513C118.561 10.1056 119.35 9.29081 122.016 9.29081H126.722V11.871H122.832C122.179 11.871 121.907 12.0611 121.907 12.713V13.2833C121.907 13.9623 122.179 14.1796 122.777 14.1796H129.497C132.679 14.1796 133.386 15.1302 133.386 17.7376V18.3894ZM133.604 12.713C133.336 12.822 133.05 12.8774 132.761 12.8759C132.19 12.8691 131.645 12.6417 131.239 12.2415C130.833 11.8413 130.599 11.2996 130.585 10.7303C130.588 10.445 130.648 10.1631 130.761 9.90084C130.873 9.63858 131.037 9.40104 131.241 9.20179C131.446 9.00255 131.688 8.8455 131.953 8.7396C132.219 8.63371 132.502 8.58106 132.788 8.58465C133.285 8.5859 133.766 8.75897 134.149 9.07441C134.533 9.38985 134.795 9.82818 134.891 10.3148C134.987 10.8015 134.912 11.3063 134.677 11.7436C134.442 12.1808 134.063 12.5234 133.604 12.713Z"
                fill="white"
              />
              <path
                d="M132.762 9.01954C132.542 9.02302 132.324 9.07026 132.123 9.15851C131.921 9.24675 131.739 9.37422 131.587 9.53349C131.435 9.69277 131.316 9.88065 131.238 10.0862C131.159 10.2917 131.123 10.5108 131.13 10.7306C131.127 10.9565 131.168 11.1808 131.252 11.3906C131.336 11.6004 131.461 11.7915 131.619 11.9528C131.772 12.1081 131.954 12.2314 132.155 12.3153C132.356 12.3993 132.571 12.4423 132.789 12.4417H133.034C133.425 12.3703 133.778 12.161 134.027 11.852C134.277 11.5429 134.407 11.1546 134.394 10.7578C134.409 10.5348 134.378 10.3112 134.303 10.1007C134.227 9.89032 134.109 9.6976 133.956 9.53458C133.803 9.37156 133.618 9.24171 133.413 9.15311C133.207 9.0645 132.986 9.01904 132.762 9.01954ZM133.279 11.8442C133.184 11.6776 133.129 11.492 133.116 11.301C133.096 11.1975 133.036 11.1057 132.95 11.0449C132.864 10.9842 132.757 10.9591 132.653 10.9751H132.408V11.8442H131.973V9.69854C132.224 9.6488 132.479 9.62153 132.735 9.61706C132.986 9.59212 133.237 9.65974 133.442 9.80718C133.516 9.85306 133.578 9.91699 133.621 9.99298C133.663 10.069 133.686 10.1546 133.687 10.2417C133.677 10.3665 133.627 10.4846 133.543 10.5778C133.459 10.6711 133.348 10.7343 133.224 10.7578C133.442 10.8393 133.524 11.0022 133.605 11.2738C133.636 11.4612 133.691 11.6439 133.768 11.817L133.279 11.8442Z"
                fill="white"
              />
              <path
                d="M132.706 9.99609H132.434V10.5936H132.651C132.95 10.5936 133.168 10.5121 133.168 10.2949C133.168 10.0776 133.032 9.99609 132.706 9.99609Z"
                fill="white"
              />
              <path
                d="M43.3461 9.29102H39.2113C34.614 9.29102 33.2539 10.7033 33.2539 14.6687V21.676H36.6542V14.7774C36.6542 12.7132 37.2799 12.1971 39.4289 12.1971H43.1557C45.3591 12.1971 45.9032 12.7132 45.9032 14.7774V21.676H49.3307V14.6687C49.3307 10.7033 47.9706 9.29102 43.3461 9.29102Z"
                fill="#43B02A"
              />
              <path
                d="M75.3636 9.29076V5.78711H71.8816V9.29076H70.1406V12.0611H71.8816V21.6758H75.3636V12.0611H79.2807V9.29076H75.3636Z"
                fill="#43B02A"
              />
              <path
                d="M63.0414 9.29102H59.6683V11.7083H63.0414C64.5648 11.7083 65.1632 12.1157 65.1632 13.6909V13.9625H55.9687C53.0036 13.9625 51.9427 14.8588 51.7251 16.4341C51.6789 16.7031 51.6607 16.9762 51.6707 17.2489V18.4168C51.6606 18.6625 51.6788 18.9086 51.7251 19.1501C51.9699 20.7254 53.0852 21.676 56.2135 21.676H62.9054C67.3122 21.676 68.5636 20.481 68.5636 16.8687V13.8539C68.5636 12.5774 68.3188 11.5725 67.7475 10.8391C67.1762 10.1058 65.4081 9.29102 63.0414 9.29102ZM65.1632 17.1403C65.1632 18.9872 64.4832 19.3402 62.8782 19.3402H56.4584C55.5879 19.3402 55.071 19.0415 55.071 18.1724V17.3304C55.071 16.3526 55.5335 16.081 56.3495 16.081H65.1632V17.1403Z"
                fill="#43B02A"
              />
              <path
                d="M12.9857 14.044L12.1424 13.9897C10.8074 13.9439 9.47883 14.1944 8.25244 14.723C5.39615 16.0267 3.30154 19.0686 2.02301 23.8216L1.94141 24.1204C7.38196 25.3154 10.9999 23.2784 12.8769 18.0094C13.0129 17.5748 13.1489 17.1403 13.285 16.6514L13.0945 17.0316L12.7409 17.5205C11.2719 19.3945 8.47006 20.2637 4.33525 20.0735L5.50497 19.7748C8.68769 18.8785 10.9999 17.6563 12.4145 16.0539L12.9585 15.402C13.0945 15.1847 13.2577 14.9403 13.3666 14.723C13.4735 14.5316 13.5645 14.3318 13.6386 14.1255H13.5026L12.9857 14.044Z"
                fill="#43B02A"
              />
              <path
                d="M15.4343 9.20922L15.271 9.61662L15.1078 10.024C15.1696 9.88561 15.2522 9.75739 15.3526 9.64378C16.7672 7.66109 19.4603 6.41173 23.4591 5.89569L24.5744 5.78704C19.9227 7.55245 16.8488 9.6981 15.3526 12.2511L15.2166 12.4956L15.0534 12.8215L14.9174 13.0931C14.8902 13.2017 14.8358 13.2832 14.8086 13.3919L15.4887 13.5005H15.5975C17.8009 13.7993 19.7323 13.5277 21.3645 12.7129C24.4293 11.1557 26.4151 7.63393 27.3219 2.1476H27.2674C21.8269 1.24226 17.8825 3.59613 15.4343 9.20922Z"
                fill="#43B02A"
              />
              <path
                d="M97.0444 14.2341C97.0444 10.7033 95.7387 9.29102 91.6311 9.29102H86.1089C83.8239 9.29102 82.4366 9.61694 81.6477 10.5132C80.8588 11.4095 80.7772 12.3329 80.75 13.9354V16.1354C80.75 19.123 82.1373 20.2637 85.9457 20.2637H93.7257V21.2686C93.7257 22.2464 93.3449 22.5994 92.3384 22.5994H87.5779V25.3969H92.6648C95.7387 25.3969 97.0444 24.2291 97.0444 21.4587C97.0444 21.4587 96.9628 16.2712 97.0444 15.8366V14.2341ZM93.7257 17.602H86.1361C84.5584 17.602 84.0687 17.2761 84.0687 15.9452V14.3156C84.0687 12.6589 84.5584 12.1971 86.1361 12.1971H91.4951C93.1816 12.1971 93.7257 12.6589 93.7257 14.2885V17.602Z"
                fill="#007DBA"
              />
              <path
                d="M133.388 17.7378V18.3896C133.388 20.834 132.681 21.676 129.199 21.676H118.535V19.0143H128.763C129.688 19.0143 130.015 18.7427 130.015 17.9008V17.4934C130.015 16.5699 129.688 16.4613 128.872 16.4613H121.908C119.542 16.4613 118.78 15.7008 118.617 14.1798C118.57 13.8561 118.552 13.5289 118.562 13.2021V12.2515C118.562 10.1058 119.351 9.29102 122.017 9.29102H126.723V11.8712H122.833C122.18 11.8712 121.908 12.0613 121.908 12.7132V13.2835C121.908 13.9625 122.18 14.1798 122.779 14.1798H129.498C132.681 14.1798 133.388 15.1304 133.388 17.7378Z"
                fill="#007DBA"
              />
              <path
                d="M116.167 12.9033C115.868 10.4317 114.236 9.29102 110.699 9.29102H107.299V11.7083H110.699C112.196 11.7083 112.794 12.1157 112.794 13.6909V13.9625H103.627C100.879 13.9625 99.7639 14.723 99.4375 16.1082V19.5032C99.7911 20.8612 100.961 21.676 103.844 21.676H110.563C114.97 21.676 116.222 20.481 116.222 16.8687V13.8539C116.222 13.528 116.194 13.2021 116.167 12.9033ZM112.794 17.1403C112.794 18.9872 112.114 19.3402 110.509 19.3402H104.089C103.219 19.3402 102.702 19.0415 102.702 18.1724V17.3304C102.702 16.3526 103.191 16.081 103.98 16.081H112.794V17.1403Z"
                fill="#007DBA"
              />
              <path
                d="M13.642 13.3932C13.3808 13.3365 13.1257 13.2547 12.8803 13.1488L12.5539 13.013C12.0368 12.7697 11.5598 12.4491 11.1393 12.0624C9.94242 11.0303 8.85431 9.40072 7.87502 7.22791L7.79341 7.06495C8.11984 9.42788 8.77271 11.139 9.752 12.2525C10.1453 12.6806 10.616 13.0308 11.1393 13.2846C11.4916 13.4254 11.8557 13.5345 12.2275 13.6105C10.7313 13.692 9.45277 13.3661 8.44627 12.5784C7.00453 11.4649 6.07963 9.50936 5.61719 6.65755H5.67159C9.23515 6.06003 11.765 7.79827 13.2068 11.8994C13.2396 12.0479 13.2851 12.1933 13.3428 12.334C13.3428 12.3612 13.37 12.3883 13.37 12.4426C13.4457 12.6377 13.5093 12.8373 13.5604 13.0402L13.642 13.3932Z"
                fill="#007DBA"
              />
              <path
                d="M31.1031 28.5461C22.761 30.393 17.3567 26.8984 14.8903 18.0623C14.6312 17.1693 14.4224 16.2626 14.2646 15.3463C14.2589 15.2801 14.2405 15.2155 14.2102 15.1562C14.1558 14.8574 14.1014 14.5587 14.0742 14.2328H14.1286L15.2439 14.5044L15.516 14.613C16.1952 14.8523 16.8436 15.1714 17.4474 15.5636C20.5485 17.492 23.1871 21.2672 25.309 26.9437C25.309 26.8079 25.2817 26.6721 25.2817 26.5091C24.7377 20.7874 23.033 17.0212 20.1676 15.2105C19.1986 14.6066 18.115 14.209 16.9849 14.0426L16.4953 13.9883H16.8761C17.3941 13.987 17.9117 14.0142 18.4267 14.0698C19.4591 14.1764 20.4737 14.4137 21.4462 14.776C25.9074 16.4871 29.0901 20.9956 31.0215 28.2474L31.1031 28.5461Z"
                fill="#007DBA"
              />
              <path
                d="M132.789 8.58611C132.504 8.58252 132.22 8.63517 131.954 8.74106C131.689 8.84696 131.447 9.00401 131.243 9.20325C131.038 9.4025 130.875 9.64004 130.762 9.9023C130.649 10.1646 130.589 10.4464 130.586 10.7318C130.6 11.3011 130.835 11.8428 131.24 12.243C131.646 12.6431 132.192 12.8705 132.762 12.8774C133.051 12.8788 133.338 12.8235 133.605 12.7144C134.065 12.5248 134.444 12.1823 134.678 11.745C134.913 11.3078 134.988 10.8029 134.892 10.3163C134.796 9.82964 134.534 9.39131 134.151 9.07587C133.767 8.76043 133.286 8.58736 132.789 8.58611ZM133.034 12.4157H132.789C132.572 12.4162 132.356 12.3733 132.155 12.2893C131.954 12.2053 131.772 12.0821 131.62 11.9268C131.461 11.7654 131.336 11.5744 131.252 11.3646C131.168 11.1548 131.127 10.9305 131.13 10.7046C131.123 10.4848 131.159 10.2657 131.238 10.0602C131.316 9.85463 131.435 9.66674 131.587 9.50747C131.739 9.3482 131.921 9.22072 132.123 9.13248C132.325 9.04424 132.542 8.997 132.762 8.99351C132.984 8.99323 133.203 9.03793 133.406 9.12487C133.61 9.21182 133.793 9.33919 133.946 9.49925C134.099 9.65931 134.217 9.84871 134.294 10.0559C134.371 10.2631 134.405 10.4838 134.394 10.7046C134.407 11.1014 134.277 11.4897 134.028 11.7988C133.778 12.1079 133.425 12.3171 133.034 12.3885"
                fill="#007DBA"
              />
              <path
                d="M133.605 11.3005C133.523 11.0289 133.442 10.8659 133.224 10.7845C133.347 10.761 133.459 10.6978 133.543 10.6045C133.626 10.5113 133.677 10.3932 133.686 10.2684C133.686 10.1812 133.663 10.0957 133.62 10.0197C133.577 9.94367 133.516 9.87975 133.442 9.83386C133.237 9.68642 132.985 9.6188 132.734 9.64374C132.479 9.64821 132.224 9.67548 131.973 9.72522V11.8709H132.408V11.0017H132.653C132.757 10.9858 132.864 11.0109 132.95 11.0716C133.036 11.1324 133.095 11.2242 133.115 11.3277C133.128 11.5187 133.184 11.7043 133.278 11.8709H133.768C133.688 11.6891 133.633 11.4972 133.605 11.3005ZM132.653 10.6215H132.435V10.024H132.707C133.034 10.024 133.17 10.1326 133.17 10.3499C133.17 10.5672 132.952 10.6215 132.653 10.6215Z"
                fill="#007DBA"
              />
              <path
                d="M99.3008 17.2501V18.418C99.3023 18.7843 99.348 19.149 99.4368 19.5044V16.1094C99.3449 16.4826 99.2993 16.8657 99.3008 17.2501Z"
                fill="#007DBA"
              />
            </svg>